<mxfile host="app.diagrams.net" modified="2024-03-19T10:19:24.982Z" agent="Mozilla/5.0 (Windows NT 10.0; Win64; x64) AppleWebKit/537.36 (KHTML, like Gecko) Chrome/122.0.0.0 Safari/537.36" etag="5cguEA3HY8d6m6vD04cj" version="24.0.7" type="device">
  <diagram name="Page-1" id="2YBvvXClWsGukQMizWep">
    <mxGraphModel dx="1259" dy="1762" grid="1" gridSize="10" guides="1" tooltips="1" connect="1" arrows="1" fold="1" page="1" pageScale="1" pageWidth="850" pageHeight="1100" math="0" shadow="0">
      <root>
        <mxCell id="0" />
        <mxCell id="1" parent="0" />
        <mxCell id="aM9ryv3xv72pqoxQDRHE-5" value="Система" style="shape=umlLifeline;perimeter=lifelinePerimeter;whiteSpace=wrap;html=1;container=0;dropTarget=0;collapsible=0;recursiveResize=0;outlineConnect=0;portConstraint=eastwest;newEdgeStyle={&quot;edgeStyle&quot;:&quot;elbowEdgeStyle&quot;,&quot;elbow&quot;:&quot;vertical&quot;,&quot;curved&quot;:0,&quot;rounded&quot;:0};" parent="1" vertex="1">
          <mxGeometry x="220" y="40" width="100" height="630" as="geometry" />
        </mxCell>
        <mxCell id="JQL4Ro9j3H7uzmRgNEVx-5" value="" style="html=1;points=[[0,0,0,0,5],[0,1,0,0,-5],[1,0,0,0,5],[1,1,0,0,-5]];perimeter=orthogonalPerimeter;outlineConnect=0;targetShapes=umlLifeline;portConstraint=eastwest;newEdgeStyle={&quot;curved&quot;:0,&quot;rounded&quot;:0};" vertex="1" parent="aM9ryv3xv72pqoxQDRHE-5">
          <mxGeometry x="45" y="70" width="10" height="30" as="geometry" />
        </mxCell>
        <mxCell id="JQL4Ro9j3H7uzmRgNEVx-39" value="" style="html=1;points=[[0,0,0,0,5],[0,1,0,0,-5],[1,0,0,0,5],[1,1,0,0,-5]];perimeter=orthogonalPerimeter;outlineConnect=0;targetShapes=umlLifeline;portConstraint=eastwest;newEdgeStyle={&quot;curved&quot;:0,&quot;rounded&quot;:0};" vertex="1" parent="aM9ryv3xv72pqoxQDRHE-5">
          <mxGeometry x="45" y="250" width="10" height="40" as="geometry" />
        </mxCell>
        <mxCell id="JQL4Ro9j3H7uzmRgNEVx-40" value="5:проверка данных" style="html=1;align=left;spacingLeft=2;endArrow=block;rounded=0;edgeStyle=orthogonalEdgeStyle;curved=0;rounded=0;" edge="1" target="JQL4Ro9j3H7uzmRgNEVx-39" parent="aM9ryv3xv72pqoxQDRHE-5">
          <mxGeometry relative="1" as="geometry">
            <mxPoint x="50" y="230" as="sourcePoint" />
            <Array as="points">
              <mxPoint x="80" y="260" />
            </Array>
          </mxGeometry>
        </mxCell>
        <mxCell id="mpVmafUk8Vq4Kn1Bw94z-4" value="Товар" style="shape=umlLifeline;perimeter=lifelinePerimeter;whiteSpace=wrap;html=1;container=0;dropTarget=0;collapsible=0;recursiveResize=0;outlineConnect=0;portConstraint=eastwest;newEdgeStyle={&quot;edgeStyle&quot;:&quot;elbowEdgeStyle&quot;,&quot;elbow&quot;:&quot;vertical&quot;,&quot;curved&quot;:0,&quot;rounded&quot;:0};" parent="1" vertex="1">
          <mxGeometry x="440" y="120" width="100" height="550" as="geometry" />
        </mxCell>
        <mxCell id="JQL4Ro9j3H7uzmRgNEVx-8" value="" style="html=1;points=[[0,0,0,0,5],[0,1,0,0,-5],[1,0,0,0,5],[1,1,0,0,-5]];perimeter=orthogonalPerimeter;outlineConnect=0;targetShapes=umlLifeline;portConstraint=eastwest;newEdgeStyle={&quot;curved&quot;:0,&quot;rounded&quot;:0};" vertex="1" parent="mpVmafUk8Vq4Kn1Bw94z-4">
          <mxGeometry x="45" y="110" width="10" height="30" as="geometry" />
        </mxCell>
        <mxCell id="JQL4Ro9j3H7uzmRgNEVx-1" value="" style="endArrow=block;endFill=1;endSize=12;html=1;rounded=0;" edge="1" parent="1" target="aM9ryv3xv72pqoxQDRHE-5">
          <mxGeometry width="160" relative="1" as="geometry">
            <mxPoint x="89.66666666666652" y="110" as="sourcePoint" />
            <mxPoint x="500" y="340" as="targetPoint" />
            <Array as="points">
              <mxPoint x="220" y="110" />
            </Array>
          </mxGeometry>
        </mxCell>
        <mxCell id="JQL4Ro9j3H7uzmRgNEVx-2" value="1:запрос на добавление" style="edgeLabel;html=1;align=center;verticalAlign=middle;resizable=0;points=[];" vertex="1" connectable="0" parent="JQL4Ro9j3H7uzmRgNEVx-1">
          <mxGeometry x="-0.0287" relative="1" as="geometry">
            <mxPoint y="-10" as="offset" />
          </mxGeometry>
        </mxCell>
        <mxCell id="JQL4Ro9j3H7uzmRgNEVx-3" value="" style="endArrow=open;endFill=1;endSize=12;html=1;rounded=0;dashed=1;" edge="1" parent="1">
          <mxGeometry width="160" relative="1" as="geometry">
            <mxPoint x="270" y="140" as="sourcePoint" />
            <mxPoint x="440" y="140" as="targetPoint" />
          </mxGeometry>
        </mxCell>
        <mxCell id="JQL4Ro9j3H7uzmRgNEVx-4" value="2:&quot;Create&quot;" style="edgeLabel;html=1;align=center;verticalAlign=middle;resizable=0;points=[];" vertex="1" connectable="0" parent="JQL4Ro9j3H7uzmRgNEVx-3">
          <mxGeometry x="-0.0287" relative="1" as="geometry">
            <mxPoint y="-10" as="offset" />
          </mxGeometry>
        </mxCell>
        <mxCell id="JQL4Ro9j3H7uzmRgNEVx-6" value="" style="endArrow=block;endFill=1;endSize=12;html=1;rounded=0;" edge="1" parent="1" target="mpVmafUk8Vq4Kn1Bw94z-4">
          <mxGeometry width="160" relative="1" as="geometry">
            <mxPoint x="270" y="230" as="sourcePoint" />
            <mxPoint x="450" y="230" as="targetPoint" />
            <Array as="points">
              <mxPoint x="400" y="230" />
            </Array>
          </mxGeometry>
        </mxCell>
        <mxCell id="JQL4Ro9j3H7uzmRgNEVx-7" value="3:заполнить данные товара" style="edgeLabel;html=1;align=center;verticalAlign=middle;resizable=0;points=[];" vertex="1" connectable="0" parent="JQL4Ro9j3H7uzmRgNEVx-6">
          <mxGeometry x="-0.0287" relative="1" as="geometry">
            <mxPoint y="-10" as="offset" />
          </mxGeometry>
        </mxCell>
        <mxCell id="JQL4Ro9j3H7uzmRgNEVx-11" value="" style="endArrow=none;endFill=0;endSize=12;html=1;rounded=0;startArrow=open;startFill=0;targetPerimeterSpacing=12;sourcePerimeterSpacing=6;dashed=1;" edge="1" parent="1">
          <mxGeometry width="160" relative="1" as="geometry">
            <mxPoint x="269.6666666666665" y="460.00000000000006" as="sourcePoint" />
            <mxPoint x="659.5" y="460.00000000000006" as="targetPoint" />
            <Array as="points">
              <mxPoint x="440" y="460" />
            </Array>
          </mxGeometry>
        </mxCell>
        <mxCell id="JQL4Ro9j3H7uzmRgNEVx-12" value="7:товар добавлен" style="edgeLabel;html=1;align=center;verticalAlign=middle;resizable=0;points=[];" vertex="1" connectable="0" parent="JQL4Ro9j3H7uzmRgNEVx-11">
          <mxGeometry x="-0.0287" relative="1" as="geometry">
            <mxPoint y="-10" as="offset" />
          </mxGeometry>
        </mxCell>
        <mxCell id="JQL4Ro9j3H7uzmRgNEVx-13" value="Склад" style="shape=umlLifeline;perimeter=lifelinePerimeter;whiteSpace=wrap;html=1;container=0;dropTarget=0;collapsible=0;recursiveResize=0;outlineConnect=0;portConstraint=eastwest;newEdgeStyle={&quot;edgeStyle&quot;:&quot;elbowEdgeStyle&quot;,&quot;elbow&quot;:&quot;vertical&quot;,&quot;curved&quot;:0,&quot;rounded&quot;:0};" vertex="1" parent="1">
          <mxGeometry x="610" y="40" width="100" height="630" as="geometry" />
        </mxCell>
        <mxCell id="JQL4Ro9j3H7uzmRgNEVx-15" value="" style="endArrow=block;endFill=1;endSize=12;html=1;rounded=0;" edge="1" parent="1">
          <mxGeometry width="160" relative="1" as="geometry">
            <mxPoint x="490" y="420" as="sourcePoint" />
            <mxPoint x="660" y="420" as="targetPoint" />
            <Array as="points">
              <mxPoint x="625" y="420" />
            </Array>
          </mxGeometry>
        </mxCell>
        <mxCell id="JQL4Ro9j3H7uzmRgNEVx-16" value="6:добавить товар" style="edgeLabel;html=1;align=center;verticalAlign=middle;resizable=0;points=[];" vertex="1" connectable="0" parent="JQL4Ro9j3H7uzmRgNEVx-15">
          <mxGeometry x="-0.0287" relative="1" as="geometry">
            <mxPoint x="-1" y="-10" as="offset" />
          </mxGeometry>
        </mxCell>
        <mxCell id="JQL4Ro9j3H7uzmRgNEVx-19" value="Пользователь" style="shape=umlLifeline;perimeter=lifelinePerimeter;whiteSpace=wrap;html=1;container=1;dropTarget=0;collapsible=0;recursiveResize=0;outlineConnect=0;portConstraint=eastwest;newEdgeStyle={&quot;curved&quot;:0,&quot;rounded&quot;:0};participant=umlActor;size=40;" vertex="1" parent="1">
          <mxGeometry x="80" y="40" width="20" height="630" as="geometry" />
        </mxCell>
        <mxCell id="JQL4Ro9j3H7uzmRgNEVx-20" value="" style="endArrow=none;endFill=0;endSize=12;html=1;rounded=0;startArrow=open;startFill=0;targetPerimeterSpacing=12;sourcePerimeterSpacing=6;dashed=1;" edge="1" parent="1">
          <mxGeometry width="160" relative="1" as="geometry">
            <mxPoint x="90" y="480" as="sourcePoint" />
            <mxPoint x="270" y="480" as="targetPoint" />
            <Array as="points">
              <mxPoint x="220" y="480" />
            </Array>
          </mxGeometry>
        </mxCell>
        <mxCell id="JQL4Ro9j3H7uzmRgNEVx-21" value="8:товар добавлен" style="edgeLabel;html=1;align=center;verticalAlign=middle;resizable=0;points=[];" vertex="1" connectable="0" parent="JQL4Ro9j3H7uzmRgNEVx-20">
          <mxGeometry x="-0.0287" relative="1" as="geometry">
            <mxPoint y="-10" as="offset" />
          </mxGeometry>
        </mxCell>
        <mxCell id="JQL4Ro9j3H7uzmRgNEVx-23" value="alt" style="shape=umlFrame;whiteSpace=wrap;html=1;pointerEvents=0;" vertex="1" parent="1">
          <mxGeometry x="30" y="360" width="710" height="290" as="geometry" />
        </mxCell>
        <mxCell id="JQL4Ro9j3H7uzmRgNEVx-26" value="" style="line;strokeWidth=2;fillColor=none;align=left;verticalAlign=middle;spacingTop=-1;spacingLeft=3;spacingRight=3;rotatable=0;labelPosition=right;points=[];portConstraint=eastwest;strokeColor=default;dashed=1;perimeterSpacing=14;" vertex="1" parent="1">
          <mxGeometry x="30" y="496" width="710" height="8" as="geometry" />
        </mxCell>
        <mxCell id="JQL4Ro9j3H7uzmRgNEVx-27" value="[нет товара с аналогичными данными]" style="text;html=1;align=center;verticalAlign=middle;resizable=0;points=[];autosize=1;strokeColor=none;fillColor=none;" vertex="1" parent="1">
          <mxGeometry x="20" y="385" width="240" height="30" as="geometry" />
        </mxCell>
        <mxCell id="JQL4Ro9j3H7uzmRgNEVx-28" value="[товар с аналогичными данными уже существует]" style="text;html=1;align=center;verticalAlign=middle;resizable=0;points=[];autosize=1;strokeColor=none;fillColor=none;" vertex="1" parent="1">
          <mxGeometry x="20" y="508" width="300" height="30" as="geometry" />
        </mxCell>
        <mxCell id="JQL4Ro9j3H7uzmRgNEVx-29" value="" style="endArrow=none;endFill=0;endSize=12;html=1;rounded=0;startArrow=open;startFill=0;targetPerimeterSpacing=12;sourcePerimeterSpacing=6;dashed=1;" edge="1" parent="1">
          <mxGeometry width="160" relative="1" as="geometry">
            <mxPoint x="269.9966666666665" y="549" as="sourcePoint" />
            <mxPoint x="490" y="549" as="targetPoint" />
            <Array as="points">
              <mxPoint x="440.33" y="549" />
            </Array>
          </mxGeometry>
        </mxCell>
        <mxCell id="JQL4Ro9j3H7uzmRgNEVx-30" value="7:товар не добавлен" style="edgeLabel;html=1;align=center;verticalAlign=middle;resizable=0;points=[];" vertex="1" connectable="0" parent="JQL4Ro9j3H7uzmRgNEVx-29">
          <mxGeometry x="-0.0287" relative="1" as="geometry">
            <mxPoint y="-10" as="offset" />
          </mxGeometry>
        </mxCell>
        <mxCell id="JQL4Ro9j3H7uzmRgNEVx-31" value="" style="endArrow=none;endFill=0;endSize=12;html=1;rounded=0;startArrow=open;startFill=0;targetPerimeterSpacing=12;sourcePerimeterSpacing=6;dashed=1;" edge="1" parent="1">
          <mxGeometry width="160" relative="1" as="geometry">
            <mxPoint x="89.9966666666665" y="570" as="sourcePoint" />
            <mxPoint x="270" y="570" as="targetPoint" />
            <Array as="points">
              <mxPoint x="260.33" y="570" />
            </Array>
          </mxGeometry>
        </mxCell>
        <mxCell id="JQL4Ro9j3H7uzmRgNEVx-32" value="8:товар не добавлен" style="edgeLabel;html=1;align=center;verticalAlign=middle;resizable=0;points=[];" vertex="1" connectable="0" parent="JQL4Ro9j3H7uzmRgNEVx-31">
          <mxGeometry x="-0.0287" relative="1" as="geometry">
            <mxPoint y="-10" as="offset" />
          </mxGeometry>
        </mxCell>
        <mxCell id="JQL4Ro9j3H7uzmRgNEVx-36" value="" style="endArrow=none;endFill=0;endSize=12;html=1;rounded=0;startArrow=open;startFill=0;targetPerimeterSpacing=12;sourcePerimeterSpacing=6;dashed=1;" edge="1" parent="1" source="aM9ryv3xv72pqoxQDRHE-5">
          <mxGeometry width="160" relative="1" as="geometry">
            <mxPoint x="310" y="260" as="sourcePoint" />
            <mxPoint x="490" y="260" as="targetPoint" />
            <Array as="points">
              <mxPoint x="440" y="260" />
            </Array>
          </mxGeometry>
        </mxCell>
        <mxCell id="JQL4Ro9j3H7uzmRgNEVx-37" value="4:данные введены" style="edgeLabel;html=1;align=center;verticalAlign=middle;resizable=0;points=[];" vertex="1" connectable="0" parent="JQL4Ro9j3H7uzmRgNEVx-36">
          <mxGeometry x="-0.0287" relative="1" as="geometry">
            <mxPoint y="-10" as="offset" />
          </mxGeometry>
        </mxCell>
        <mxCell id="JQL4Ro9j3H7uzmRgNEVx-41" value="" style="shape=umlDestroy;whiteSpace=wrap;html=1;strokeWidth=3;targetShapes=umlLifeline;" vertex="1" parent="1">
          <mxGeometry x="475" y="610" width="30" height="30" as="geometry" />
        </mxCell>
        <mxCell id="JQL4Ro9j3H7uzmRgNEVx-42" value="" style="endArrow=block;endFill=1;endSize=12;html=1;rounded=0;" edge="1" parent="1">
          <mxGeometry width="160" relative="1" as="geometry">
            <mxPoint x="270" y="600" as="sourcePoint" />
            <mxPoint x="489.5" y="600" as="targetPoint" />
            <Array as="points">
              <mxPoint x="405" y="600" />
            </Array>
          </mxGeometry>
        </mxCell>
        <mxCell id="JQL4Ro9j3H7uzmRgNEVx-43" value="9:удалить" style="edgeLabel;html=1;align=center;verticalAlign=middle;resizable=0;points=[];" vertex="1" connectable="0" parent="JQL4Ro9j3H7uzmRgNEVx-42">
          <mxGeometry x="-0.0287" relative="1" as="geometry">
            <mxPoint y="-10" as="offset" />
          </mxGeometry>
        </mxCell>
        <mxCell id="JQL4Ro9j3H7uzmRgNEVx-44" value="sd addProduct" style="shape=umlFrame;whiteSpace=wrap;html=1;pointerEvents=0;fillStyle=auto;align=center;perimeterSpacing=1;labelPadding=0;container=0;autosize=0;shadow=0;fontSize=8;" vertex="1" parent="1">
          <mxGeometry y="-20" width="800" height="700" as="geometry" />
        </mxCell>
      </root>
    </mxGraphModel>
  </diagram>
</mxfile>
